HIERARCHY
ROOT Hips
{
	OFFSET 0.00000 0.00000 0.00000
	CHANNELS 6 Xposition Yposition Zposition Yrotation Zrotation Xrotation 
	JOINT Lumbar
	{
		OFFSET 0 0 0
		CHANNELS 3 Zrotation Xrotation Yrotation
		JOINT Neck
		{
			OFFSET 0.00 0.2701 0.00
			CHANNELS 3 Zrotation Xrotation Yrotation
			End Site
			{
				OFFSET 0.00 0.1379 0.00
			}
		}
		JOINT RightShoulder
		{
			OFFSET 0.0119 0.2289 0.1181
			CHANNELS 3 Zrotation Xrotation Yrotation
			JOINT RightElbow
			{
				OFFSET 0.00 -0.1475 0.00
				CHANNELS 2 Zrotation Yrotation
				JOINT RightWrist
				{
					OFFSET 0.00 -0.1605 0.00
					CHANNELS 2 Zrotation Xrotation
					End Site
					{
						OFFSET 0.0040 -0.1068 0.0006
					}
				}
			}
		}
		JOINT LeftShoulder
		{
			OFFSET 0.0119 0.2289 -0.1181
			CHANNELS 3 Zrotation Xrotation Yrotation
			JOINT LeftElbow
			{
				OFFSET 0.00 -0.1475 0.00
				CHANNELS 2 Zrotation Yrotation
				JOINT LeftWrist
				{
					OFFSET 0.00 -0.1605 0.00
					CHANNELS 2 Zrotation Xrotation
					End Site
					{
						OFFSET 0.0040 -0.1068 -0.0006
					}
				}
			}
		}
	}
	JOINT RightHip
	{
		OFFSET 0.0316 -0.0424 0.0458
		CHANNELS 3 Zrotation Xrotation Yrotation
		JOINT RightKnee
		{
			OFFSET 0.00 -0.2438 0.00
			CHANNELS 1 Zrotation
			JOINT RightAnkle
			{
				OFFSET 0.00 -0.2449 0.00
				CHANNELS 3 Zrotation Xrotation Yrotation
				End Site
				{
					OFFSET 0.1237 -0.0542 0.0051
				}
			}
		}
	}
	JOINT LeftHip
	{
		OFFSET 0.0316 -0.0424 -0.0458
		CHANNELS 3 Zrotation Xrotation Yrotation
		JOINT LeftKnee
		{
			OFFSET 0.00 -0.2438 0.00
			CHANNELS 1 Zrotation
			JOINT LeftAnkle
			{
				OFFSET 0.00 -0.2449 0.00
				CHANNELS 3 Zrotation Xrotation Yrotation
				End Site
				{
					OFFSET 0.1237 -0.0542 -0.0051
				}
			}
		}
	}
}
MOTION
Frames: 14
Frame Time: 0.02
-0.00118 0.00013 0.00047 -159.75803 -41.22386 -1.40201 48.76112 1.77128 -4.53495 12.15956 -0.25359 -0.37305 8.04296 -7.58852 16.99983 25.23065 89.51059 6.80641 -0.423 10.67077 7.38846 -22.59984 46.68224 -88.17463 2.21848 -1.10582 44.54228 1.16773 -4.40731 -19.09631 -6.20467 -2.97575 -2.14785 47.99724 2.729 6.67632 -24.87892 -6.48811 2.28057 1.78028
-0.00131 5e-05 0.00066 -159.73417 -41.27553 -1.41222 48.796 1.79622 -4.64855 11.61652 -0.19028 -0.3738 5.72615 -7.93364 14.27748 24.98188 89.39473 6.40952 -0.30154 6.72387 8.38036 -21.77788 46.20785 -89.99893 3.34468 -1.184 44.55171 1.14385 -4.5015 -19.07854 -6.20436 -2.97032 -2.14463 48.02912 2.62882 6.29279 -24.86902 -6.49458 2.33367 1.81384
-0.00143 -4e-05 0.00084 -159.7104 -41.32704 -1.42243 48.83086 1.82112 -4.76167 11.07422 -0.12709 -0.37456 3.41397 -8.27776 11.55979 24.73415 89.28583 6.01568 -0.17937 2.78506 9.37015 -20.95806 45.73528 -91.81766 4.46801 -1.2618 44.56102 1.12007 -4.59528 -19.06079 -6.20404 -2.96491 -2.14142 48.06082 2.52899 5.91063 -24.85912 -6.50105 2.38661 1.84729
-0.00155 -0.00012 0.00103 -159.68662 -41.37855 -1.43261 48.86565 1.84599 -4.8749 10.53269 -0.06396 -0.37531 1.10387 -8.62181 8.84502 24.48619 89.17187 5.62042 -0.05802 -1.1504 10.35927 -20.13883 45.26241 -93.63613 5.59078 -1.33968 44.5704 1.09627 -4.68914 -19.04307 -6.20373 -2.95949 -2.13822 48.09259 2.42912 5.52832 -24.84925 -6.50751 2.43954 1.88074
-0.00168 -0.00021 0.00122 -159.66274 -41.43024 -1.44278 48.90042 1.87089 -4.98864 9.9908 -0.00073 -0.37607 -1.20986 -8.9669 6.12752 24.23708 89.04717 5.22111 0.06198 -5.09227 11.3498 -19.31691 44.78758 -95.46074 6.71633 -1.4181 44.57992 1.07234 -4.78348 -19.02534 -6.20341 -2.95406 -2.135 48.12458 2.32887 5.14454 -24.83939 -6.51398 2.49262 1.9143
-0.0018 -0.0003 0.00141 -159.63921 -41.48135 -1.45306 48.93547 1.89579 -5.10044 9.44769 0.06235 -0.37683 -3.51859 -9.309 3.40995 23.99223 88.9707 4.83859 0.18856 -9.02426 12.33781 -18.50112 44.3198 -97.26736 7.835 -1.49464 44.58879 1.04889 -4.87613 -19.00754 -6.20312 -2.94867 -2.13182 48.15566 2.22992 4.76581 -24.82942 -6.52042 2.54526 1.94752
-0.00192 -0.00038 0.0016 -159.61502 -41.53357 -1.46312 48.96993 1.92066 -5.21606 8.90757 0.12567 -0.37758 -5.83491 -9.65655 0.69416 23.73915 88.80084 4.4236 0.30239 -12.97211 13.33065 -17.67584 43.83839 -99.10647 8.96588 -1.5746 44.59897 1.02452 -4.97196 -18.9899 -6.20277 -2.94322 -2.12857 48.18853 2.12848 4.37743 -24.81967 -6.52692 2.59873 1.98138
-0.00205 -0.00047 0.00179 -159.59137 -41.58476 -1.47337 49.00492 1.94556 -5.3281 8.36479 0.18876 -0.37834 -8.14412 -9.99942 -2.02083 23.49354 88.71059 4.03695 0.42682 -16.90477 14.31747 -16.85577 43.36948 -100.91875 10.08621 -1.65193 44.60794 1.00097 -5.06506 -18.97212 -6.20247 -2.93781 -2.12537 48.21976 2.02931 3.99778 -24.80973 -6.53337 2.65144 2.01466
-0.00218 -0.00055 0.00197 -159.56867 -41.63475 -1.48392 49.04063 1.97052 -5.43599 7.818 0.25165 -0.3791 -10.44651 -10.33535 -4.74631 23.25746 88.74464 3.69144 0.56905 -20.82347 15.30372 -16.05572 42.91598 -102.6866 11.19141 -1.72394 44.61542 0.97852 -5.15404 -18.95413 -6.20225 -2.93251 -2.12228 48.24892 1.93302 3.62931 -24.7995 -6.53975 2.70322 2.04722
-0.00229 -0.00064 0.00217 -159.54138 -41.69179 -1.49293 49.07241 1.99517 -5.56844 7.29198 0.31592 -0.37983 -12.79386 -10.70759 -7.44609 22.96775 88.14478 3.12878 0.62346 -24.83655 16.31371 -15.18148 42.3742 -104.67518 12.37701 -1.82027 44.63143 0.95004 -5.26435 -18.93721 -6.20163 -2.92674 -2.1187 48.28981 1.82044 3.19805 -24.79079 -6.5465 2.76035 2.08389
-0.00243 -0.00072 0.00234 -159.52321 -41.73389 -1.50508 49.11235 2.02046 -5.64864 6.72373 0.37716 -0.38063 -15.04224 -11.00548 -10.17731 22.79042 88.82969 3.01163 0.85371 -28.64077 17.26038 -14.43767 42.0184 -106.22023 13.39705 -1.86931 44.62949 0.93406 -5.3312 -18.91815 -6.20182 -2.92186 -2.11609 48.30609 1.74205 2.8983 -24.77895 -6.55246 2.80619 2.11191
-0.00268 -0.00072 0.00243 -159.53465 -41.73514 -1.52662 49.1759 2.04762 -5.58761 6.02546 0.43075 -0.38166 -17.04973 -11.07807 -13.18765 22.931 93.5192 4.23549 1.65104 -31.94634 18.14576 -14.28249 42.18048 -106.3397 13.92063 -1.75224 44.57744 0.9547 -5.26452 -18.89213 -6.20453 -2.92027 -2.11679 48.25307 1.76006 2.97135 -24.75776 -6.55634 2.82081 2.11575
-0.00296 -0.0007 0.00249 -159.5543 -41.72136 -1.55113 49.24736 2.07538 -5.47377 5.28775 0.4811 -0.38275 -18.95078 -11.07943 -16.19582 23.18269 99.41666 5.88625 2.61054 -35.0268 18.95013 -14.22474 42.52795 -106.04207 14.2824 -1.59297 44.50759 0.98746 -5.15663 -18.86418 -6.20801 -2.91946 -2.11839 48.17571 1.81198 3.17455 -24.73357 -6.5594 2.8241 2.11097
-0.00323 -0.0007 0.00256 -159.56731 -41.71435 -1.57382 49.3145 2.10278 -5.3826 4.57685 0.53259 -0.3838 -20.88236 -11.12797 -19.07659 23.37732 104.44014 7.26241 3.43905 -38.16379 19.7138 -13.95994 42.78565 -106.08478 14.75013 -1.47866 44.4464 1.01315 -5.07716 -18.83781 -6.21095 -2.9177 -2.11915 48.11057 1.84666 3.31003 -24.71123 -6.56277 2.83279 2.11045
